# xmcd CD database file
#
# Track frame offsets:
#	150
#	19807
#	39412
#	64588
#	76577
#	105075
#	115767
#	126128
#
# Disc length: 1884 seconds
#
# Revision: 0
# Processed by: cddbd v1.5.2PL0 Copyright (c) Steve Scherf et al.
# Submitted via: CDex 1.51
#
DISCID=50075a08
DTITLE=Sly - Lucky Moon
DYEAR=2007
DGENRE=Blues
TTITLE0=Yellow Kitchen
TTITLE1=Silverbug (Featuring Jerry Donahue)
TTITLE2=Running Out Of Love
TTITLE3=Black Mail
TTITLE4=Lucky Moon
TTITLE5=Lovin' Arms
TTITLE6=Steelstring Tango
TTITLE7=Victim For The Blues
EXTD=YEAR: 2007
EXTT0=
EXTT1=
EXTT2=
EXTT3=
EXTT4=
EXTT5=
EXTT6=
EXTT7=
PLAYORDER=
